<svg width="79" height="23" viewBox="0 0 79 23" fill="none" xmlns="http://www.w3.org/2000/svg">
<g filter="url(#filter0_i)">
<rect width="79" height="23" rx="4.25641" fill="white"/>
</g>
<g clip-path="url(#clip0)">
<path d="M33.0732 12.9321L36.4392 17.0714H33.7812L30.7857 13.2699V17.0714H28.6071V6.17861H30.7857V12.5836L33.5525 9.44639H36.3301L33.0732 12.9321V12.9321ZM24.3589 9.22861C23.8819 9.23575 23.4137 9.35839 22.9945 9.58603C22.5752 9.81367 22.2174 10.1395 21.9517 10.5357V9.44639H19.8929V17.0714H22.0714V13.5094C22.0428 13.2509 22.0677 12.9892 22.1446 12.7408C22.2215 12.4923 22.3487 12.2622 22.5183 12.065C22.6879 11.8678 22.8963 11.7076 23.1305 11.5945C23.3647 11.4813 23.6197 11.4175 23.8796 11.4071C25.1432 11.4071 25.3393 12.6489 25.3393 13.5094V17.0714H27.5179V13.0301C27.5179 10.6337 26.7226 9.22861 24.4025 9.22861H24.3589V9.22861ZM43.8571 13.4332C43.8654 13.5928 43.8654 13.7529 43.8571 13.9125H38.1383V13.9887C38.2312 14.443 38.4828 14.8493 38.8482 15.1347C39.2135 15.4202 39.6686 15.5662 40.1318 15.5464C40.4993 15.5624 40.8662 15.5041 41.2106 15.3749C41.555 15.2458 41.8697 15.0485 42.1361 14.7949L43.5849 15.8842C43.1257 16.3527 42.5734 16.7199 41.9636 16.9619C41.3538 17.2039 40.7001 17.3154 40.0446 17.2893C39.5017 17.3236 38.9578 17.241 38.4496 17.0471C37.9414 16.8532 37.4807 16.5525 37.0986 16.1653C36.7166 15.778 36.4221 15.3134 36.235 14.8026C36.048 14.2918 35.9727 13.7468 36.0143 13.2044C36.0031 12.669 36.1024 12.1371 36.3058 11.6417C36.5093 11.1463 36.8126 10.6982 37.1969 10.3252C37.5811 9.95215 38.0381 9.66228 38.5393 9.47362C39.0405 9.28496 39.5752 9.20156 40.11 9.22861C42.1579 9.22861 43.8571 10.6774 43.8571 13.4332ZM41.8311 12.4964C41.8231 12.2806 41.7712 12.0688 41.6787 11.8737C41.5861 11.6786 41.4548 11.5044 41.2928 11.3618C41.1308 11.2191 40.9414 11.1109 40.7361 11.0438C40.5309 10.9767 40.3142 10.952 40.0992 10.9714C39.1413 10.8679 38.2738 11.5426 38.1383 12.4964H41.8311ZM11.1786 6.17861H9V17.0714H15.5357V14.893H11.1786V6.17861ZM50.3929 6.17861H52.5714V17.0714H50.5126V16.3089C50.2512 16.631 49.918 16.8874 49.5398 17.0576C49.1615 17.2279 48.7486 17.3072 48.3342 17.2893C47.8278 17.2763 47.3295 17.1599 46.8698 16.9472C46.4101 16.7345 45.9988 16.4301 45.6611 16.0526C45.3234 15.6751 45.0665 15.2326 44.9061 14.7521C44.7458 14.2717 44.6854 13.7635 44.7286 13.2589C44.6772 12.7535 44.7315 12.243 44.8881 11.7598C45.0448 11.2766 45.3002 10.8312 45.6384 10.4522C45.9765 10.0731 46.3898 9.7685 46.852 9.55785C47.3143 9.3472 47.8153 9.23507 48.3232 9.22861C48.7015 9.21203 49.0794 9.27091 49.4347 9.40182C49.79 9.53273 50.1158 9.73305 50.3929 9.99111V6.17861V6.17861ZM50.5562 13.2589C50.5905 13.0074 50.5704 12.7514 50.4974 12.5083C50.4243 12.2652 50.3 12.0406 50.1327 11.8496C49.9655 11.6586 49.7593 11.5057 49.5279 11.4012C49.2966 11.2967 49.0455 11.243 48.7917 11.2437C47.7495 11.3194 46.9599 12.2156 47.0161 13.2589C46.9599 14.3022 47.7495 15.1985 48.7917 15.2742C49.0455 15.2749 49.2966 15.2212 49.5279 15.1167C49.7593 15.0122 49.9656 14.8593 50.1328 14.6683C50.3 14.4773 50.4244 14.2527 50.4974 14.0095C50.5705 13.7664 50.5905 13.5104 50.5562 13.2589V13.2589ZM17.7143 5.9607C17.364 5.96566 17.0286 6.10337 16.7758 6.34603C16.5231 6.58868 16.3719 6.91819 16.3526 7.26803C16.3526 8.01992 16.9623 8.62957 17.7143 8.62957C18.4663 8.62957 19.0757 8.0198 19.0757 7.26803C19.0565 6.91823 18.9052 6.58877 18.6525 6.34614C18.3998 6.10352 18.0645 5.96581 17.7142 5.96082L17.7143 5.9607ZM16.625 17.0714H18.8036V9.44639H16.625V17.0714ZM70 5.0893V18.1607C70 18.4496 69.8852 18.7267 69.681 18.931C69.4767 19.1352 69.1996 19.25 68.9107 19.25H55.8393C55.5504 19.25 55.2733 19.1352 55.069 18.931C54.8648 18.7267 54.75 18.4496 54.75 18.1607V5.0893C54.75 4.8004 54.8648 4.52333 55.069 4.31905C55.2733 4.11477 55.5504 4 55.8393 4H68.9107C69.1996 4 69.4767 4.11477 69.681 4.31905C69.8852 4.52333 70 4.8004 70 5.0893V5.0893ZM59.1071 9.44639H56.9286V17.0714H59.1071V9.44639ZM59.3794 7.26791C59.3794 6.51589 58.7698 5.90625 58.0179 5.90625C57.2659 5.90625 56.6562 6.51589 56.6562 7.26791C56.6562 8.0198 57.2659 8.62945 58.0179 8.62945C58.7698 8.62945 59.3794 8.0198 59.3794 7.26791V7.26791ZM67.8214 13.0301C67.8214 10.6337 67.0263 9.22861 64.7061 9.22861C64.2217 9.22865 63.7447 9.3479 63.3173 9.57585C62.8898 9.80381 62.5251 10.1334 62.2551 10.5357V9.44639H60.1964V17.0714H62.375V13.5094C62.3464 13.2509 62.3713 12.9892 62.4482 12.7408C62.5251 12.4923 62.6523 12.2622 62.8219 12.065C62.9915 11.8678 63.1999 11.7076 63.4341 11.5945C63.6683 11.4813 63.9233 11.4175 64.1832 11.4071C65.4468 11.4071 65.6429 12.6489 65.6429 13.5094V17.0714H67.8214V13.0301Z" fill="#0A66C2"/>
</g>
<defs>
<filter id="filter0_i" x="0" y="0" width="79" height="23" filterUnits="userSpaceOnUse" color-interpolation-filters="sRGB">
<feFlood flood-opacity="0" result="BackgroundImageFix"/>
<feBlend mode="normal" in="SourceGraphic" in2="BackgroundImageFix" result="shape"/>
<feColorMatrix in="SourceAlpha" type="matrix" values="0 0 0 0 0 0 0 0 0 0 0 0 0 0 0 0 0 0 127 0" result="hardAlpha"/>
<feOffset/>
<feGaussianBlur stdDeviation="1.70256"/>
<feComposite in2="hardAlpha" operator="arithmetic" k2="-1" k3="1"/>
<feColorMatrix type="matrix" values="0 0 0 0 0 0 0 0 0 0 0 0 0 0 0 0 0 0 0.25 0"/>
<feBlend mode="normal" in2="shape" result="effect1_innerShadow"/>
</filter>
<clipPath id="clip0">
<rect width="61" height="15.25" fill="white" transform="translate(9 4)"/>
</clipPath>
</defs>
</svg>
